<svg id="svg" xmlns="http://www.w3.org/2000/svg" xmlns:xlink="http://www.w3.org/1999/xlink" width="400" height="409.4117647058823" viewBox="0, 0, 400,409.4117647058823"><g id="svgg"><path id="path0" d="M113.588 138.428 C 104.125 139.213,88.848 146.396,79.290 154.555 C 78.031 155.630,76.280 156.981,75.400 157.557 C 72.793 159.263,64.256 167.772,58.901 174.000 C 56.159 177.190,52.989 180.846,51.858 182.125 C 50.726 183.403,49.726 184.661,49.635 184.920 C 49.544 185.179,48.635 186.473,47.615 187.795 C 45.806 190.139,42.400 194.968,39.712 199.000 C 38.106 201.407,38.131 202.495,39.800 202.850 C 40.460 202.990,70.250 203.128,106.000 203.156 C 144.465 203.186,172.360 203.362,174.331 203.589 C 178.135 204.026,179.300 203.350,179.823 200.400 C 180.277 197.846,181.302 194.211,181.798 193.400 C 183.504 190.611,184.618 186.400,183.650 186.400 C 183.423 186.400,182.390 185.604,178.726 182.604 C 178.356 182.301,177.546 181.728,176.926 181.330 C 175.617 180.490,173.036 178.537,171.600 177.299 C 169.120 175.161,165.719 172.492,164.951 172.081 C 164.489 171.833,162.297 170.139,160.081 168.315 C 157.866 166.492,154.892 164.138,153.473 163.083 C 152.053 162.029,150.043 160.364,149.004 159.383 C 147.966 158.403,146.971 157.600,146.794 157.600 C 146.617 157.600,145.215 156.565,143.679 155.300 C 140.995 153.090,137.802 150.537,131.800 145.804 C 130.260 144.590,128.370 143.073,127.600 142.433 C 121.788 137.607,122.172 137.716,113.588 138.428 M187.529 226.724 C 186.993 227.316,186.025 228.504,185.377 229.365 C 181.055 235.112,177.878 239.197,174.100 243.869 C 172.945 245.298,172.000 246.599,172.000 246.762 C 172.000 246.925,171.080 248.035,169.956 249.229 C 168.832 250.423,167.617 251.850,167.256 252.400 C 166.645 253.331,163.999 256.679,159.629 262.048 C 158.623 263.284,157.170 265.147,156.400 266.187 C 155.630 267.227,154.010 269.213,152.800 270.600 C 151.590 271.987,149.970 273.980,149.200 275.029 C 148.430 276.079,147.074 277.761,146.186 278.769 C 144.031 281.213,140.288 285.929,139.399 287.318 C 138.256 289.106,138.745 298.783,140.167 302.509 C 140.735 303.999,141.201 305.619,141.201 306.109 C 141.202 306.599,141.534 307.542,141.938 308.205 C 142.342 308.867,142.994 310.397,143.388 311.605 C 143.781 312.812,144.329 314.070,144.605 314.400 C 144.881 314.730,145.533 315.783,146.053 316.740 C 147.971 320.265,149.052 322.021,151.307 325.273 C 153.726 328.763,154.223 329.420,158.349 334.600 C 161.518 338.578,172.402 349.319,176.791 352.800 C 178.594 354.230,180.818 356.096,181.734 356.946 C 182.650 357.797,184.300 359.102,185.400 359.846 C 186.500 360.590,187.850 361.502,188.400 361.873 C 188.950 362.244,189.940 363.021,190.600 363.600 C 191.260 364.179,192.250 364.956,192.800 365.327 C 193.350 365.698,195.302 367.036,197.138 368.301 C 202.737 372.157,203.798 372.487,204.216 370.500 C 204.344 369.895,204.524 369.040,204.617 368.600 C 204.710 368.160,204.801 341.520,204.818 309.400 C 204.836 277.280,204.992 246.590,205.165 241.200 C 205.354 235.305,205.333 231.304,205.111 231.159 C 204.909 231.027,203.451 230.691,201.872 230.413 C 200.292 230.134,198.806 229.752,198.569 229.562 C 198.332 229.372,196.945 228.848,195.486 228.397 C 194.027 227.947,192.726 227.403,192.593 227.189 C 192.461 226.975,191.746 226.800,191.005 226.800 C 190.264 226.800,189.398 226.541,189.081 226.224 C 188.579 225.722,188.378 225.786,187.529 226.724 " stroke="none" fill="#dc7333" fill-rule="evenodd"></path><path id="path1" d="M207.679 38.117 C 207.430 38.424,207.201 59.759,207.051 96.600 C 206.817 154.347,206.453 176.907,205.744 177.616 C 205.540 177.820,203.915 178.242,202.134 178.553 C 200.354 178.864,198.470 179.387,197.948 179.715 C 197.427 180.043,196.298 180.534,195.439 180.806 C 193.845 181.313,192.890 181.927,188.372 185.348 C 186.958 186.420,185.398 187.483,184.906 187.710 C 184.352 187.966,183.705 188.943,183.206 190.274 C 182.764 191.458,182.153 192.825,181.850 193.313 C 181.547 193.801,180.992 195.460,180.618 197.000 C 180.244 198.540,179.750 200.558,179.521 201.485 C 177.852 208.238,185.795 224.659,191.284 225.804 C 192.008 225.955,193.013 226.340,193.517 226.659 C 200.060 230.806,211.351 231.247,217.200 227.584 C 217.530 227.377,218.520 226.824,219.400 226.354 C 220.280 225.884,221.909 224.646,223.021 223.602 C 224.133 222.558,225.393 221.586,225.821 221.442 C 227.572 220.852,230.668 212.514,231.851 205.200 C 232.583 200.676,229.569 192.466,225.389 187.600 C 222.620 184.376,222.658 183.491,225.727 179.857 C 226.868 178.506,228.515 176.410,229.386 175.200 C 230.257 173.990,231.877 171.888,232.985 170.530 C 235.997 166.837,239.716 161.999,240.439 160.831 C 240.791 160.264,241.916 158.993,242.939 158.006 C 243.963 157.019,244.800 156.065,244.800 155.885 C 244.800 155.548,247.686 151.822,251.583 147.129 C 252.802 145.661,254.430 143.618,255.200 142.591 C 255.970 141.564,258.130 138.864,260.000 136.592 C 261.870 134.320,264.570 130.996,266.000 129.205 C 267.430 127.414,268.875 125.639,269.212 125.262 C 269.548 124.885,270.448 123.705,271.212 122.640 L 272.600 120.703 272.497 115.651 C 272.395 110.625,272.088 109.092,269.805 102.200 C 268.789 99.131,267.144 95.015,266.740 94.528 C 266.353 94.061,265.859 93.190,263.789 89.322 C 263.295 88.400,262.079 86.576,261.085 85.270 C 260.092 83.964,259.054 82.468,258.779 81.947 C 258.504 81.426,257.271 79.806,256.040 78.346 C 254.808 76.886,252.962 74.636,251.939 73.346 C 249.269 69.981,239.193 60.105,235.200 56.939 C 233.330 55.457,230.511 53.154,228.936 51.822 C 227.361 50.490,224.970 48.590,223.623 47.600 C 222.275 46.610,220.504 45.304,219.686 44.698 C 218.869 44.092,216.940 42.758,215.400 41.734 C 213.860 40.709,212.150 39.474,211.600 38.988 C 210.385 37.916,208.229 37.437,207.679 38.117 " stroke="none" fill="#0c52c9" fill-rule="evenodd"></path><path id="path2" d="M0.000 204.600 L 0.000 409.200 200.000 409.200 L 400.000 409.200 400.000 204.600 L 400.000 0.000 200.000 0.000 L 0.000 0.000 0.000 204.600 M211.255 36.602 C 214.599 38.970,214.932 39.193,218.100 41.201 C 219.585 42.142,220.800 43.042,220.800 43.202 C 220.800 43.363,222.195 44.396,223.900 45.499 C 225.605 46.602,228.015 48.381,229.257 49.452 C 230.498 50.523,233.558 53.056,236.057 55.080 C 241.844 59.766,249.740 67.515,253.707 72.400 C 255.404 74.490,257.739 77.337,258.896 78.726 C 260.053 80.116,261.303 81.839,261.673 82.555 C 262.043 83.271,262.628 84.091,262.973 84.377 C 263.318 84.664,263.600 85.073,263.600 85.287 C 263.600 85.501,264.005 86.229,264.500 86.904 C 266.864 90.129,272.556 102.016,273.030 104.715 C 273.173 105.532,273.671 107.460,274.135 109.000 C 274.968 111.760,274.983 112.452,275.190 157.239 C 275.364 194.935,275.494 202.790,275.949 203.339 C 276.454 203.947,280.431 204.000,325.760 204.000 C 378.619 204.000,376.800 203.933,376.800 205.891 C 376.800 208.128,373.395 214.035,367.501 222.026 C 363.646 227.252,363.664 227.230,355.508 237.169 C 352.612 240.698,342.007 251.265,338.357 254.257 C 330.440 260.749,326.258 263.771,321.800 266.221 C 320.700 266.826,318.673 267.937,317.296 268.689 C 314.817 270.044,311.363 271.325,304.000 273.619 C 298.275 275.402,293.252 275.582,248.600 275.598 C 226.600 275.606,208.372 275.757,208.093 275.934 C 206.878 276.705,206.800 279.714,206.794 326.197 C 206.789 363.115,206.679 373.615,206.289 374.386 C 205.105 376.727,202.429 376.125,197.000 372.299 C 196.120 371.679,194.680 370.702,193.800 370.128 C 192.920 369.554,191.120 368.247,189.800 367.223 C 188.480 366.199,186.860 365.028,186.200 364.622 C 185.540 364.215,184.190 363.179,183.200 362.319 C 181.028 360.432,177.779 357.806,174.800 355.527 C 171.798 353.232,158.220 339.553,156.008 336.596 C 155.023 335.278,153.479 333.300,152.576 332.200 C 150.179 329.278,145.906 322.652,144.192 319.200 C 143.373 317.550,142.543 315.930,142.349 315.600 C 141.051 313.398,139.153 308.448,138.539 305.661 C 138.231 304.265,137.668 302.465,137.289 301.661 C 136.653 300.313,136.585 296.685,136.400 254.800 C 136.184 205.679,136.299 207.920,133.964 207.453 C 133.269 207.314,111.629 207.200,85.876 207.200 L 39.053 207.200 37.306 206.354 C 34.480 204.987,34.051 203.964,35.433 201.895 C 36.055 200.963,36.932 199.527,37.382 198.705 C 38.875 195.975,48.136 183.200,50.053 181.225 C 51.296 179.945,53.548 177.270,54.800 175.587 C 58.541 170.559,68.734 160.057,72.303 157.552 C 73.240 156.895,74.438 155.962,74.965 155.479 C 75.493 154.995,76.509 154.150,77.224 153.600 C 77.938 153.050,79.080 152.133,79.761 151.562 C 80.443 150.991,81.990 149.870,83.200 149.069 C 84.410 148.269,85.940 147.243,86.600 146.790 C 88.455 145.515,93.118 142.801,93.478 142.787 C 93.655 142.781,94.875 142.241,96.190 141.587 C 97.504 140.934,98.833 140.400,99.143 140.400 C 99.452 140.400,100.300 140.033,101.026 139.584 C 101.752 139.135,103.586 138.510,105.101 138.194 C 106.616 137.878,108.563 137.300,109.428 136.910 C 110.904 136.243,113.812 136.200,157.085 136.200 C 197.747 136.200,203.241 136.129,203.777 135.593 C 204.313 135.058,204.398 129.193,204.493 85.993 C 204.612 31.521,204.437 34.800,207.219 34.800 C 208.343 34.800,209.337 35.243,211.255 36.602 " stroke="none" fill="#fbfbfb" fill-rule="evenodd"></path><path id="path3" d="M232.447 205.500 C 231.864 205.985,231.432 207.120,231.040 209.200 C 230.469 212.225,228.452 217.819,227.380 219.350 C 226.293 220.902,227.770 222.887,232.200 225.831 C 234.649 227.458,238.717 230.528,239.800 231.566 C 240.240 231.987,242.220 233.523,244.200 234.978 C 248.081 237.831,249.219 238.717,252.966 241.807 C 255.989 244.299,258.189 246.008,259.440 246.835 C 259.968 247.184,261.346 248.311,262.500 249.339 C 263.655 250.368,266.130 252.404,268.000 253.865 C 269.870 255.326,271.959 256.989,272.642 257.560 C 273.326 258.132,274.833 259.320,275.993 260.200 C 279.395 262.782,283.308 265.860,284.600 266.969 C 288.221 270.078,288.827 270.452,290.717 270.751 C 293.877 271.251,302.343 270.567,304.512 269.638 C 305.533 269.200,307.050 268.721,307.884 268.572 C 308.718 268.424,309.960 267.965,310.644 267.553 C 311.328 267.141,312.628 266.543,313.533 266.224 C 315.344 265.585,323.615 261.116,325.200 259.920 C 325.750 259.505,327.303 258.408,328.651 257.483 C 336.183 252.313,345.484 243.665,353.047 234.800 C 355.769 231.610,358.788 228.100,359.758 227.000 C 360.727 225.900,362.369 223.740,363.406 222.200 C 364.444 220.660,365.687 218.950,366.168 218.400 C 368.067 216.232,373.200 208.133,373.200 207.306 C 373.200 205.571,374.025 205.595,312.721 205.594 C 280.315 205.594,249.390 205.421,244.000 205.209 C 238.610 204.998,233.995 204.820,233.744 204.813 C 233.494 204.806,232.910 205.115,232.447 205.500 M188.924 225.455 C 188.615 226.260,189.461 226.786,191.076 226.794 C 191.778 226.797,192.463 226.978,192.597 227.195 C 192.731 227.412,194.092 227.969,195.621 228.434 C 197.150 228.898,198.502 229.441,198.624 229.639 C 198.747 229.838,199.242 229.987,199.724 229.970 C 200.716 229.937,197.920 228.483,196.760 228.430 C 196.408 228.413,195.328 227.863,194.360 227.207 C 193.392 226.551,192.330 226.010,192.000 226.005 C 191.670 225.999,190.897 225.733,190.282 225.412 C 189.288 224.894,189.137 224.898,188.924 225.455 " stroke="none" fill="#68cc1b" fill-rule="evenodd"></path><path id="path4" d="M205.164 35.900 C 204.689 36.826,204.583 44.765,204.493 85.993 C 204.398 129.193,204.313 135.058,203.777 135.593 C 203.241 136.129,197.747 136.200,157.085 136.200 C 113.812 136.200,110.904 136.243,109.428 136.910 C 108.563 137.300,106.616 137.878,105.101 138.194 C 103.586 138.510,101.752 139.135,101.026 139.584 C 100.300 140.033,99.452 140.400,99.143 140.400 C 98.833 140.400,97.504 140.934,96.190 141.587 C 94.875 142.241,93.655 142.781,93.478 142.787 C 93.118 142.801,88.455 145.515,86.600 146.790 C 85.940 147.243,84.410 148.269,83.200 149.069 C 81.990 149.870,80.443 150.991,79.761 151.562 C 79.080 152.133,77.938 153.050,77.224 153.600 C 76.509 154.150,75.493 154.995,74.965 155.479 C 74.438 155.962,73.240 156.895,72.303 157.552 C 68.734 160.057,58.541 170.559,54.800 175.587 C 53.548 177.270,51.296 179.945,50.053 181.225 C 48.136 183.200,38.875 195.975,37.382 198.705 C 36.932 199.527,36.055 200.963,35.433 201.895 C 34.051 203.964,34.480 204.987,37.306 206.354 L 39.053 207.200 85.876 207.200 C 111.629 207.200,133.269 207.314,133.964 207.453 C 136.299 207.920,136.184 205.679,136.400 254.800 C 136.585 296.685,136.653 300.313,137.289 301.661 C 137.668 302.465,138.231 304.265,138.539 305.661 C 139.153 308.448,141.051 313.398,142.349 315.600 C 142.543 315.930,143.373 317.550,144.192 319.200 C 145.906 322.652,150.179 329.278,152.576 332.200 C 153.479 333.300,155.023 335.278,156.008 336.596 C 158.220 339.553,171.798 353.232,174.800 355.527 C 177.779 357.806,181.028 360.432,183.200 362.319 C 184.190 363.179,185.540 364.215,186.200 364.622 C 186.860 365.028,188.480 366.199,189.800 367.223 C 191.120 368.247,192.920 369.554,193.800 370.128 C 194.680 370.702,196.120 371.679,197.000 372.299 C 202.429 376.125,205.105 376.727,206.289 374.386 C 206.679 373.615,206.789 363.115,206.794 326.197 C 206.800 279.714,206.878 276.705,208.093 275.934 C 208.372 275.757,226.600 275.606,248.600 275.598 C 293.252 275.582,298.275 275.402,304.000 273.619 C 311.363 271.325,314.817 270.044,317.296 268.689 C 318.673 267.937,320.700 266.826,321.800 266.221 C 326.258 263.771,330.440 260.749,338.357 254.257 C 342.007 251.265,352.612 240.698,355.508 237.169 C 363.664 227.230,363.646 227.252,367.501 222.026 C 373.395 214.035,376.800 208.128,376.800 205.891 C 376.800 203.933,378.619 204.000,325.760 204.000 C 280.431 204.000,276.454 203.947,275.949 203.339 C 275.494 202.790,275.364 194.935,275.190 157.239 C 274.983 112.452,274.968 111.760,274.135 109.000 C 273.671 107.460,273.173 105.532,273.030 104.715 C 272.556 102.016,266.864 90.129,264.500 86.904 C 264.005 86.229,263.600 85.501,263.600 85.287 C 263.600 85.073,263.318 84.664,262.973 84.377 C 262.628 84.091,262.043 83.271,261.673 82.555 C 261.303 81.839,260.053 80.116,258.896 78.726 C 257.739 77.337,255.404 74.490,253.707 72.400 C 249.740 67.515,241.844 59.766,236.057 55.080 C 233.558 53.056,230.498 50.523,229.257 49.452 C 228.015 48.381,225.605 46.602,223.900 45.499 C 222.195 44.396,220.800 43.363,220.800 43.202 C 220.800 43.042,219.585 42.142,218.100 41.201 C 214.932 39.193,214.599 38.970,211.255 36.602 C 208.098 34.366,206.071 34.133,205.164 35.900 M211.600 38.988 C 212.150 39.474,213.860 40.709,215.400 41.734 C 216.940 42.758,218.869 44.092,219.686 44.698 C 220.504 45.304,222.275 46.610,223.623 47.600 C 224.970 48.590,227.361 50.490,228.936 51.822 C 230.511 53.154,233.330 55.457,235.200 56.939 C 239.193 60.105,249.269 69.981,251.939 73.346 C 252.962 74.636,254.808 76.886,256.040 78.346 C 257.271 79.806,258.504 81.426,258.779 81.947 C 259.054 82.468,260.092 83.964,261.085 85.270 C 262.079 86.576,263.295 88.400,263.789 89.322 C 265.859 93.190,266.353 94.061,266.740 94.528 C 267.144 95.015,268.789 99.131,269.805 102.200 C 272.088 109.092,272.395 110.625,272.497 115.651 L 272.600 120.703 271.212 122.640 C 270.448 123.705,269.548 124.885,269.212 125.262 C 268.875 125.639,267.430 127.414,266.000 129.205 C 264.570 130.996,261.870 134.320,260.000 136.592 C 258.130 138.864,255.970 141.564,255.200 142.591 C 254.430 143.618,252.802 145.661,251.583 147.129 C 247.686 151.822,244.800 155.548,244.800 155.885 C 244.800 156.065,243.963 157.019,242.939 158.006 C 241.916 158.993,240.791 160.264,240.439 160.831 C 239.716 161.999,235.997 166.837,232.985 170.530 C 231.877 171.888,230.257 173.990,229.386 175.200 C 228.515 176.410,226.868 178.506,225.727 179.857 C 222.658 183.491,222.620 184.376,225.389 187.600 C 229.324 192.182,231.927 198.776,231.986 204.314 C 231.998 205.477,232.087 205.582,232.756 205.224 C 233.263 204.952,236.906 204.948,243.856 205.211 C 249.545 205.427,280.624 205.601,312.921 205.599 C 374.020 205.594,373.200 205.571,373.200 207.306 C 373.200 208.133,368.067 216.232,366.168 218.400 C 365.687 218.950,364.444 220.660,363.406 222.200 C 362.369 223.740,360.727 225.900,359.758 227.000 C 358.788 228.100,355.769 231.610,353.047 234.800 C 345.484 243.665,336.183 252.313,328.651 257.483 C 327.303 258.408,325.750 259.505,325.200 259.920 C 323.615 261.116,315.344 265.585,313.533 266.224 C 312.628 266.543,311.328 267.141,310.644 267.553 C 309.960 267.965,308.718 268.424,307.884 268.572 C 307.050 268.721,305.533 269.200,304.512 269.638 C 302.343 270.567,293.877 271.251,290.717 270.751 C 288.827 270.452,288.221 270.078,284.600 266.969 C 283.308 265.860,279.395 262.782,275.993 260.200 C 274.833 259.320,273.326 258.132,272.642 257.560 C 271.959 256.989,269.870 255.326,268.000 253.865 C 266.130 252.404,263.655 250.368,262.500 249.339 C 261.346 248.311,259.968 247.184,259.440 246.835 C 258.189 246.008,255.989 244.299,252.966 241.807 C 249.219 238.717,248.081 237.831,244.200 234.978 C 242.220 233.523,240.240 231.987,239.800 231.566 C 238.717 230.528,234.649 227.458,232.200 225.831 C 231.100 225.100,229.425 223.750,228.479 222.831 C 226.406 220.819,225.910 220.889,223.021 223.602 C 221.909 224.646,220.280 225.884,219.400 226.354 C 218.520 226.824,217.530 227.377,217.200 227.584 C 212.354 230.619,205.784 231.080,199.253 228.844 C 197.192 228.139,195.434 227.633,195.346 227.721 C 195.159 227.907,199.468 229.491,201.800 230.094 C 205.521 231.056,205.698 231.186,205.414 232.764 C 205.271 233.554,205.076 261.650,204.980 295.200 C 204.749 375.554,204.848 371.606,203.057 371.594 C 202.023 371.587,201.433 371.259,197.138 368.301 C 195.302 367.036,193.350 365.698,192.800 365.327 C 192.250 364.956,191.260 364.179,190.600 363.600 C 189.940 363.021,188.950 362.244,188.400 361.873 C 187.850 361.502,186.500 360.590,185.400 359.846 C 184.300 359.102,182.650 357.797,181.734 356.946 C 180.818 356.096,178.594 354.230,176.791 352.800 C 172.402 349.319,161.518 338.578,158.349 334.600 C 154.223 329.420,153.726 328.763,151.307 325.273 C 149.052 322.021,147.971 320.265,146.053 316.740 C 145.533 315.783,144.881 314.730,144.605 314.400 C 144.329 314.070,143.781 312.812,143.388 311.605 C 142.994 310.397,142.342 308.867,141.938 308.205 C 141.534 307.542,141.202 306.599,141.201 306.109 C 141.201 305.619,140.735 303.999,140.167 302.509 C 138.745 298.783,138.256 289.106,139.399 287.318 C 140.288 285.929,144.031 281.213,146.186 278.769 C 147.074 277.761,148.430 276.079,149.200 275.029 C 149.970 273.980,151.590 271.987,152.800 270.600 C 154.010 269.213,155.630 267.227,156.400 266.187 C 157.170 265.147,158.623 263.284,159.629 262.048 C 163.999 256.679,166.645 253.331,167.256 252.400 C 167.617 251.850,168.832 250.423,169.956 249.229 C 171.080 248.035,172.000 246.925,172.000 246.762 C 172.000 246.599,172.945 245.298,174.100 243.869 C 177.885 239.189,181.183 234.947,185.376 229.365 C 186.022 228.504,187.175 227.134,187.937 226.321 L 189.322 224.842 186.533 221.521 C 182.048 216.179,180.022 211.499,179.348 204.923 C 179.082 202.327,179.060 202.286,178.384 203.121 C 177.727 203.932,177.520 203.956,174.346 203.591 C 172.356 203.362,144.663 203.186,106.000 203.156 C 70.250 203.128,40.460 202.990,39.800 202.850 C 38.131 202.495,38.106 201.407,39.712 199.000 C 42.400 194.968,45.806 190.139,47.615 187.795 C 48.635 186.473,49.544 185.179,49.635 184.920 C 49.726 184.661,50.726 183.403,51.858 182.125 C 52.989 180.846,56.159 177.190,58.901 174.000 C 64.256 167.772,72.793 159.263,75.400 157.557 C 76.280 156.981,78.031 155.630,79.290 154.555 C 89.680 145.686,104.059 139.204,115.260 138.340 C 122.153 137.808,122.061 137.778,127.600 142.422 C 128.370 143.068,130.260 144.590,131.800 145.804 C 137.802 150.537,140.995 153.090,143.679 155.300 C 145.215 156.565,146.617 157.600,146.794 157.600 C 146.971 157.600,147.966 158.403,149.004 159.383 C 150.043 160.364,152.053 162.029,153.473 163.083 C 154.892 164.138,157.866 166.492,160.081 168.315 C 162.297 170.139,164.489 171.833,164.951 172.081 C 165.719 172.492,169.120 175.161,171.600 177.299 C 173.036 178.537,175.617 180.490,176.926 181.330 C 177.546 181.728,178.356 182.300,178.726 182.602 C 179.097 182.904,180.184 183.794,181.143 184.579 C 182.101 185.365,183.107 186.141,183.378 186.304 C 183.649 186.467,184.045 186.920,184.257 187.311 C 184.664 188.058,184.831 187.957,192.008 182.658 C 193.003 181.923,194.533 181.095,195.408 180.817 C 196.284 180.538,197.427 180.043,197.948 179.715 C 198.470 179.387,200.354 178.864,202.134 178.553 C 203.915 178.242,205.540 177.820,205.744 177.616 C 206.453 176.907,206.817 154.347,207.051 96.600 C 207.201 59.759,207.430 38.424,207.679 38.117 C 208.229 37.437,210.385 37.916,211.600 38.988 " stroke="none" fill="#a7a8a7" fill-rule="evenodd"></path></g></svg>